<svg width="124" height="23" viewBox="0 0 124 23" fill="none" xmlns="http://www.w3.org/2000/svg">
<g filter="url(#filter0_d_227_116)">
<rect x="1.5" y="1.5" width="45" height="20" rx="5" fill="#F7F8FA" shape-rendering="crispEdges"/>
<path d="M19.1121 9.72554L15.5148 9.17806L13.9067 5.7641C13.8627 5.67063 13.7905 5.59496 13.7012 5.54897C13.4774 5.43324 13.2053 5.52968 13.0934 5.7641L11.4853 9.17806L7.88791 9.72554C7.78873 9.74038 7.69805 9.78934 7.62863 9.86352C7.5447 9.95386 7.49845 10.0754 7.50004 10.2014C7.50163 10.3274 7.55094 10.4477 7.63713 10.5356L10.2399 13.1929L9.62496 16.9452C9.61054 17.0324 9.61976 17.1222 9.65159 17.2043C9.68341 17.2864 9.73655 17.3575 9.805 17.4095C9.87344 17.4616 9.95444 17.4925 10.0388 17.4988C10.1232 17.5051 10.2076 17.4865 10.2824 17.4452L13.5 15.6736L16.7177 17.4452C16.8055 17.4941 16.9075 17.5104 17.0053 17.4926C17.2518 17.4481 17.4176 17.2033 17.3751 16.9452L16.7602 13.1929L19.3629 10.5356C19.4338 10.4629 19.4805 10.368 19.4947 10.2641C19.533 10.0045 19.3601 9.76412 19.1121 9.72554V9.72554Z" fill="#1B1C21"/>
<path d="M31.9746 12.6289V13.5195H25.8105V12.8809L29.6309 6.96875H30.5156L29.5664 8.67969L27.041 12.6289H31.9746ZM30.7852 6.96875V15.5H29.7012V6.96875H30.7852ZM32.9497 14.9258C32.9497 14.7422 33.0064 14.5879 33.1197 14.4629C33.2369 14.334 33.4048 14.2695 33.6236 14.2695C33.8423 14.2695 34.0083 14.334 34.1216 14.4629C34.2388 14.5879 34.2974 14.7422 34.2974 14.9258C34.2974 15.1055 34.2388 15.2578 34.1216 15.3828C34.0083 15.5078 33.8423 15.5703 33.6236 15.5703C33.4048 15.5703 33.2369 15.5078 33.1197 15.3828C33.0064 15.2578 32.9497 15.1055 32.9497 14.9258ZM41.3487 6.96875V7.57812L37.8155 15.5H36.6729L40.2003 7.85938H35.5831V6.96875H41.3487Z" fill="#1B1C21"/>
</g>
<g filter="url(#filter1_d_227_116)">
<rect x="54.5" y="1.5" width="68" height="20" rx="5" fill="#BEBEBE" shape-rendering="crispEdges"/>
<rect x="57.5" y="1.5" width="62" height="20" rx="5" fill="#F7F8FA"/>
<path d="M63.5801 11.4395L62.7129 11.2168L63.1406 6.96875H67.5176V7.9707H64.0605L63.8027 10.291C63.959 10.2012 64.1562 10.1172 64.3945 10.0391C64.6367 9.96094 64.9141 9.92188 65.2266 9.92188C65.6211 9.92188 65.9746 9.99023 66.2871 10.127C66.5996 10.2598 66.8652 10.4512 67.084 10.7012C67.3066 10.9512 67.4766 11.252 67.5938 11.6035C67.7109 11.9551 67.7695 12.3477 67.7695 12.7812C67.7695 13.1914 67.7129 13.5684 67.5996 13.9121C67.4902 14.2559 67.3242 14.5566 67.1016 14.8145C66.8789 15.0684 66.5977 15.2656 66.2578 15.4062C65.9219 15.5469 65.5254 15.6172 65.0684 15.6172C64.7246 15.6172 64.3984 15.5703 64.0898 15.4766C63.7852 15.3789 63.5117 15.2324 63.2695 15.0371C63.0312 14.8379 62.8359 14.5918 62.6836 14.2988C62.5352 14.002 62.4414 13.6543 62.4023 13.2559H63.4336C63.4805 13.5762 63.5742 13.8457 63.7148 14.0645C63.8555 14.2832 64.0391 14.4492 64.2656 14.5625C64.4961 14.6719 64.7637 14.7266 65.0684 14.7266C65.3262 14.7266 65.5547 14.6816 65.7539 14.5918C65.9531 14.502 66.1211 14.373 66.2578 14.2051C66.3945 14.0371 66.498 13.834 66.5684 13.5957C66.6426 13.3574 66.6797 13.0898 66.6797 12.793C66.6797 12.5234 66.6426 12.2734 66.5684 12.043C66.4941 11.8125 66.3828 11.6113 66.2344 11.4395C66.0898 11.2676 65.9121 11.1348 65.7012 11.041C65.4902 10.9434 65.248 10.8945 64.9746 10.8945C64.6113 10.8945 64.3359 10.9434 64.1484 11.041C63.9648 11.1387 63.7754 11.2715 63.5801 11.4395ZM74.1705 10.5547V11.8555C74.1705 12.5547 74.108 13.1445 73.983 13.625C73.858 14.1055 73.6783 14.4922 73.4439 14.7852C73.2095 15.0781 72.9263 15.291 72.5943 15.4238C72.2662 15.5527 71.8951 15.6172 71.481 15.6172C71.1529 15.6172 70.8501 15.5762 70.5728 15.4941C70.2955 15.4121 70.0455 15.2812 69.8228 15.1016C69.604 14.918 69.4165 14.6797 69.2603 14.3867C69.104 14.0938 68.9849 13.7383 68.9029 13.3203C68.8208 12.9023 68.7798 12.4141 68.7798 11.8555V10.5547C68.7798 9.85547 68.8423 9.26953 68.9673 8.79688C69.0962 8.32422 69.2779 7.94531 69.5122 7.66016C69.7466 7.37109 70.0279 7.16406 70.356 7.03906C70.688 6.91406 71.0591 6.85156 71.4693 6.85156C71.8013 6.85156 72.106 6.89258 72.3833 6.97461C72.6646 7.05273 72.9146 7.17969 73.1333 7.35547C73.3521 7.52734 73.5376 7.75781 73.69 8.04688C73.8462 8.33203 73.9654 8.68164 74.0474 9.0957C74.1294 9.50977 74.1705 9.99609 74.1705 10.5547ZM73.0806 12.0312V10.373C73.0806 9.99023 73.0572 9.6543 73.0103 9.36523C72.9673 9.07227 72.9029 8.82227 72.8169 8.61523C72.731 8.4082 72.6216 8.24023 72.4888 8.11133C72.3599 7.98242 72.2095 7.88867 72.0376 7.83008C71.8697 7.76758 71.6802 7.73633 71.4693 7.73633C71.2115 7.73633 70.983 7.78516 70.7837 7.88281C70.5845 7.97656 70.4165 8.12695 70.2798 8.33398C70.147 8.54102 70.0455 8.8125 69.9751 9.14844C69.9048 9.48438 69.8697 9.89258 69.8697 10.373V12.0312C69.8697 12.4141 69.8912 12.752 69.9341 13.0449C69.981 13.3379 70.0494 13.5918 70.1392 13.8066C70.229 14.0176 70.3384 14.1914 70.4673 14.3281C70.5962 14.4648 70.7447 14.5664 70.9126 14.6328C71.0845 14.6953 71.274 14.7266 71.481 14.7266C71.7466 14.7266 71.979 14.6758 72.1783 14.5742C72.3775 14.4727 72.5435 14.3145 72.6763 14.0996C72.813 13.8809 72.9146 13.6016 72.981 13.2617C73.0474 12.918 73.0806 12.5078 73.0806 12.0312ZM77.794 11.4277V12.3184H74.9347V11.4277H77.794ZM84.1071 6.96875V7.57812L80.5739 15.5H79.4313L82.9586 7.85938H78.3414V6.96875H84.1071ZM86.2775 14.5918H86.3888C87.0138 14.5918 87.5217 14.5039 87.9123 14.3281C88.3029 14.1523 88.6037 13.916 88.8146 13.6191C89.0256 13.3223 89.1701 12.9883 89.2482 12.6172C89.3263 12.2422 89.3654 11.8574 89.3654 11.4629V10.1562C89.3654 9.76953 89.3205 9.42578 89.2306 9.125C89.1447 8.82422 89.0236 8.57227 88.8674 8.36914C88.715 8.16602 88.5412 8.01172 88.3459 7.90625C88.1506 7.80078 87.9435 7.74805 87.7248 7.74805C87.4748 7.74805 87.2502 7.79883 87.051 7.90039C86.8556 7.99805 86.6896 8.13672 86.5529 8.31641C86.4201 8.49609 86.3185 8.70703 86.2482 8.94922C86.1779 9.19141 86.1427 9.45508 86.1427 9.74023C86.1427 9.99414 86.174 10.2402 86.2365 10.4785C86.299 10.7168 86.3947 10.9316 86.5236 11.123C86.6525 11.3145 86.8127 11.4668 87.0041 11.5801C87.1994 11.6895 87.4279 11.7441 87.6896 11.7441C87.9318 11.7441 88.1584 11.6973 88.3693 11.6035C88.5842 11.5059 88.7736 11.375 88.9377 11.2109C89.1056 11.043 89.2385 10.8535 89.3361 10.6426C89.4377 10.4316 89.4963 10.2109 89.5119 9.98047H90.0275C90.0275 10.3047 89.9631 10.625 89.8342 10.9414C89.7092 11.2539 89.5334 11.5391 89.3068 11.7969C89.0802 12.0547 88.8146 12.2617 88.5099 12.418C88.2052 12.5703 87.8732 12.6465 87.5138 12.6465C87.092 12.6465 86.7267 12.5645 86.4181 12.4004C86.1095 12.2363 85.8556 12.0176 85.6564 11.7441C85.4611 11.4707 85.3146 11.166 85.217 10.8301C85.1232 10.4902 85.0763 10.1465 85.0763 9.79883C85.0763 9.39258 85.133 9.01172 85.2463 8.65625C85.3595 8.30078 85.5275 7.98828 85.7502 7.71875C85.9728 7.44531 86.2482 7.23242 86.5763 7.08008C86.9084 6.92773 87.2912 6.85156 87.7248 6.85156C88.2131 6.85156 88.6291 6.94922 88.9728 7.14453C89.3166 7.33984 89.5959 7.60156 89.8107 7.92969C90.0295 8.25781 90.1896 8.62695 90.2912 9.03711C90.3927 9.44727 90.4435 9.86914 90.4435 10.3027V10.6953C90.4435 11.1367 90.4142 11.5859 90.3556 12.043C90.301 12.4961 90.1935 12.9297 90.0334 13.3438C89.8771 13.7578 89.6486 14.1289 89.3478 14.457C89.047 14.7812 88.6545 15.0391 88.1701 15.2305C87.6896 15.418 87.0959 15.5117 86.3888 15.5117H86.2775V14.5918Z" fill="#1B1C21"/>
<path d="M97.4043 10.4199V15.5H96.3145V9.16016H97.3457L97.4043 10.4199ZM97.1816 12.0898L96.6777 12.0723C96.6816 11.6387 96.7383 11.2383 96.8477 10.8711C96.957 10.5 97.1191 10.1777 97.334 9.9043C97.5488 9.63086 97.8164 9.41992 98.1367 9.27148C98.457 9.11914 98.8281 9.04297 99.25 9.04297C99.5469 9.04297 99.8203 9.08594 100.07 9.17188C100.32 9.25391 100.537 9.38477 100.721 9.56445C100.904 9.74414 101.047 9.97461 101.148 10.2559C101.25 10.5371 101.301 10.877 101.301 11.2754V15.5H100.217V11.3281C100.217 10.9961 100.16 10.7305 100.047 10.5312C99.9375 10.332 99.7812 10.1875 99.5781 10.0977C99.375 10.0039 99.1367 9.95703 98.8633 9.95703C98.543 9.95703 98.2754 10.0137 98.0605 10.127C97.8457 10.2402 97.6738 10.3965 97.5449 10.5957C97.416 10.7949 97.3223 11.0234 97.2637 11.2812C97.209 11.5352 97.1816 11.8047 97.1816 12.0898ZM101.289 11.4922L100.562 11.7148C100.566 11.3672 100.623 11.0332 100.732 10.7129C100.846 10.3926 101.008 10.1074 101.219 9.85742C101.434 9.60742 101.697 9.41016 102.01 9.26562C102.322 9.11719 102.68 9.04297 103.082 9.04297C103.422 9.04297 103.723 9.08789 103.984 9.17773C104.25 9.26758 104.473 9.40625 104.652 9.59375C104.836 9.77734 104.975 10.0137 105.068 10.3027C105.162 10.5918 105.209 10.9355 105.209 11.334V15.5H104.119V11.3223C104.119 10.9668 104.062 10.6914 103.949 10.4961C103.84 10.2969 103.684 10.1582 103.48 10.0801C103.281 9.99805 103.043 9.95703 102.766 9.95703C102.527 9.95703 102.316 9.99805 102.133 10.0801C101.949 10.1621 101.795 10.2754 101.67 10.4199C101.545 10.5605 101.449 10.7227 101.383 10.9062C101.32 11.0898 101.289 11.2852 101.289 11.4922ZM107.883 9.16016V15.5H106.793V9.16016H107.883ZM106.711 7.47852C106.711 7.30273 106.764 7.1543 106.87 7.0332C106.979 6.91211 107.139 6.85156 107.35 6.85156C107.557 6.85156 107.715 6.91211 107.825 7.0332C107.938 7.1543 107.995 7.30273 107.995 7.47852C107.995 7.64648 107.938 7.79102 107.825 7.91211C107.715 8.0293 107.557 8.08789 107.35 8.08789C107.139 8.08789 106.979 8.0293 106.87 7.91211C106.764 7.79102 106.711 7.64648 106.711 7.47852ZM110.564 10.5137V15.5H109.48V9.16016H110.505L110.564 10.5137ZM110.306 12.0898L109.855 12.0723C109.858 11.6387 109.923 11.2383 110.048 10.8711C110.173 10.5 110.349 10.1777 110.575 9.9043C110.802 9.63086 111.071 9.41992 111.384 9.27148C111.7 9.11914 112.05 9.04297 112.433 9.04297C112.745 9.04297 113.026 9.08594 113.276 9.17188C113.526 9.25391 113.739 9.38672 113.915 9.57031C114.095 9.75391 114.232 9.99219 114.325 10.2852C114.419 10.5742 114.466 10.9277 114.466 11.3457V15.5H113.376V11.334C113.376 11.002 113.327 10.7363 113.23 10.5371C113.132 10.334 112.989 10.1875 112.802 10.0977C112.614 10.0039 112.384 9.95703 112.11 9.95703C111.841 9.95703 111.595 10.0137 111.372 10.127C111.153 10.2402 110.964 10.3965 110.804 10.5957C110.648 10.7949 110.524 11.0234 110.435 11.2812C110.349 11.5352 110.306 11.8047 110.306 12.0898Z" fill="#1B1C21"/>
</g>
<defs>
<filter id="filter0_d_227_116" x="0.5" y="0.5" width="47" height="22" filterUnits="userSpaceOnUse" color-interpolation-filters="sRGB">
<feFlood flood-opacity="0" result="BackgroundImageFix"/>
<feColorMatrix in="SourceAlpha" type="matrix" values="0 0 0 0 0 0 0 0 0 0 0 0 0 0 0 0 0 0 127 0" result="hardAlpha"/>
<feOffset/>
<feGaussianBlur stdDeviation="0.5"/>
<feComposite in2="hardAlpha" operator="out"/>
<feColorMatrix type="matrix" values="0 0 0 0 0 0 0 0 0 0 0 0 0 0 0 0 0 0 0.25 0"/>
<feBlend mode="normal" in2="BackgroundImageFix" result="effect1_dropShadow_227_116"/>
<feBlend mode="normal" in="SourceGraphic" in2="effect1_dropShadow_227_116" result="shape"/>
</filter>
<filter id="filter1_d_227_116" x="53.5" y="0.5" width="70" height="22" filterUnits="userSpaceOnUse" color-interpolation-filters="sRGB">
<feFlood flood-opacity="0" result="BackgroundImageFix"/>
<feColorMatrix in="SourceAlpha" type="matrix" values="0 0 0 0 0 0 0 0 0 0 0 0 0 0 0 0 0 0 127 0" result="hardAlpha"/>
<feOffset/>
<feGaussianBlur stdDeviation="0.5"/>
<feComposite in2="hardAlpha" operator="out"/>
<feColorMatrix type="matrix" values="0 0 0 0 0 0 0 0 0 0 0 0 0 0 0 0 0 0 0.25 0"/>
<feBlend mode="normal" in2="BackgroundImageFix" result="effect1_dropShadow_227_116"/>
<feBlend mode="normal" in="SourceGraphic" in2="effect1_dropShadow_227_116" result="shape"/>
</filter>
</defs>
</svg>
